<?xml version="1.0" encoding="UTF-8" standalone="no"?>
<!-- Created with Inkscape (http://www.inkscape.org/) -->

<svg
   xmlns:dc="http://purl.org/dc/elements/1.1/"
   xmlns:cc="http://creativecommons.org/ns#"
   xmlns:rdf="http://www.w3.org/1999/02/22-rdf-syntax-ns#"
   xmlns:svg="http://www.w3.org/2000/svg"
   xmlns="http://www.w3.org/2000/svg"
   xmlns:sodipodi="http://sodipodi.sourceforge.net/DTD/sodipodi-0.dtd"
   xmlns:inkscape="http://www.inkscape.org/namespaces/inkscape"
   width="18.08745mm"
   height="32.804897mm"
   viewBox="0 0 18.08745 32.804897"
   version="1.1"
   id="svg8"
   inkscape:version="0.92.4 (5da689c313, 2019-01-14)"
   sodipodi:docname="neybur vertical box_text as path.svg">
  <defs
     id="defs2" />
  <sodipodi:namedview
     id="base"
     pagecolor="#ffffff"
     bordercolor="#666666"
     borderopacity="1.0"
     inkscape:pageopacity="0.0"
     inkscape:pageshadow="2"
     inkscape:zoom="2"
     inkscape:cx="140.8465"
     inkscape:cy="121.27468"
     inkscape:document-units="mm"
     inkscape:current-layer="layer1"
     showgrid="false"
     showguides="true"
     inkscape:guide-bbox="true"
     fit-margin-top="0"
     fit-margin-left="0"
     fit-margin-right="0"
     fit-margin-bottom="0"
     inkscape:window-width="1920"
     inkscape:window-height="1001"
     inkscape:window-x="-9"
     inkscape:window-y="-9"
     inkscape:window-maximized="1">
    <sodipodi:guide
       position="-15.859775,55.754013"
       orientation="1,0"
       id="guide3955"
       inkscape:locked="false" />
  </sodipodi:namedview>
  <metadata
     id="metadata5">
    <rdf:RDF>
      <cc:Work
         rdf:about="">
        <dc:format>image/svg+xml</dc:format>
        <dc:type
           rdf:resource="http://purl.org/dc/dcmitype/StillImage" />
        <dc:title></dc:title>
      </cc:Work>
    </rdf:RDF>
  </metadata>
  <g
     inkscape:label="Layer 1"
     inkscape:groupmode="layer"
     id="layer1"
     transform="translate(-58.589983,-47.031406)">
    <g
       id="g3902">
      <g
         transform="translate(60.635253,-229.11227)"
         id="g3847">
        <g
           aria-label="Y"
           style="font-style:normal;font-weight:normal;font-size:10.58333302px;line-height:1.25;font-family:sans-serif;letter-spacing:0px;word-spacing:0px;fill:#000000;fill-opacity:1;stroke:none;stroke-width:0.26458332"
           id="text3751">
          <path
             style="stroke-width:0.26458332"
             d="m 6.4492186,289.30538 c -0.902615,1.44005 -1.80523,2.8801 -2.707845,4.32015 0,1.12482 0,2.24965 0,3.37447 -0.3744727,-0.0915 -1.1993837,0.26752 -1.0231933,-0.37461 -0.026566,-0.98125 0.052855,-1.99243 -0.039191,-2.95519 C 1.7859926,292.21526 0.89299629,290.76032 0,289.30538 c 0.39576142,0.10056 1.0270342,-0.21881 1.2489177,0.19179 0.6620089,1.08329 1.3240179,2.16657 1.9860269,3.24986 0.7079671,-1.14722 1.4159342,-2.29443 2.1239013,-3.44165 0.3634576,0 0.7269151,0 1.0903727,0 z"
             id="path3964"
             inkscape:connector-curvature="0" />
        </g>
        <g
           aria-label="B"
           style="font-style:normal;font-weight:normal;font-size:10.58333302px;line-height:1.25;font-family:sans-serif;letter-spacing:0px;word-spacing:0px;fill:#000000;fill-opacity:1;stroke:none;stroke-width:0.26458332"
           id="text3755">
          <path
             style="stroke-width:0.26458332"
             d="m 13.803263,294.63322 c 0.08569,1.62312 -1.649683,2.5009 -3.074748,2.36678 -0.9095051,0 -1.8190101,0 -2.7285152,0 0,-2.56487 0,-5.12975 0,-7.69462 1.3814531,0.0599 2.8072562,-0.16557 4.1473562,0.23059 1.769614,0.47154 0.640305,2.81288 0.166334,3.13277 0.891318,0.21399 1.533693,1.04298 1.489573,1.96448 z m -1.720825,-3.46749 c -0.05868,-1.24181 -1.563431,-0.94978 -2.439057,-0.98705 -0.6366816,-0.18021 -0.7028084,0.21013 -0.6201879,0.74922 0,0.49096 0,0.98191 0,1.47287 0.9445965,-0.0757 2.0432969,0.24709 2.8215339,-0.4302 0.186871,-0.22326 0.23625,-0.52332 0.237711,-0.80484 z m 0.656291,3.50883 c 0.137342,-1.33002 -1.430968,-1.50623 -2.408086,-1.41082 -0.4077565,0.053 -1.0258381,-0.10426 -1.3074499,0.0749 0,0.92932 0,1.85864 0,2.78796 1.1370829,-0.0831 2.4835589,0.28458 3.4080609,-0.54133 0.238993,-0.24032 0.309916,-0.58528 0.307475,-0.91073 z"
             id="path3967"
             inkscape:connector-curvature="0" />
        </g>
      </g>
      <g
         transform="translate(60.635545,-219.31386)"
         id="g3853">
        <g
           aria-label="U"
           style="font-style:normal;font-weight:normal;font-size:10.58333302px;line-height:1.25;font-family:sans-serif;letter-spacing:0px;word-spacing:0px;fill:#000000;fill-opacity:1;stroke:none;stroke-width:0.26458332"
           id="text3759">
          <path
             style="stroke-width:0.26458332"
             d="m 5.906616,293.74956 c 0.086613,1.32847 -0.532791,2.89331 -1.9927723,3.14871 -1.4196905,0.35316 -3.30807602,-0.0902 -3.73297618,-1.67593 -0.32550861,-1.53932 -0.12497235,-3.13038 -0.180867507892807,-4.69442 0,-0.46091 0,-0.92182 0,-1.38273 C 0.37447266,289.23665 1.1993838,288.87767 1.0231933,289.5198 c 0.035787,1.75553 -0.0826271,3.52117 0.082682,5.26846 0.30306,1.80258 3.4145298,1.80279 3.6896972,-0.0155 0.1770267,-1.85357 0.048884,-3.72797 0.08785,-5.59083 0.2598543,0.0219 1.1616265,-0.28048 1.0231935,0.26295 0,1.43489 0,2.86979 0,4.30468 z"
             id="path3970"
             inkscape:connector-curvature="0" />
        </g>
        <g
           aria-label="R"
           style="font-style:normal;font-weight:normal;font-size:10.58333302px;line-height:1.25;font-family:sans-serif;letter-spacing:0px;word-spacing:0px;fill:#000000;fill-opacity:1;stroke:none;stroke-width:0.26458332"
           id="text3763">
          <path
             style="stroke-width:0.26458332"
             d="m 14.366536,297 c -0.449504,-0.039 -0.971469,0.0776 -1.376314,-0.0573 -0.841752,-1.00064 -1.683504,-2.00127 -2.525256,-3.00191 -0.480591,0 -0.9611819,0 -1.4417729,0 0,1.01975 0,2.03949 0,3.05924 -0.3744727,-0.0915 -1.1993837,0.26752 -1.0231933,-0.37461 0,-2.44 0,-4.88001 0,-7.32001 1.3860413,0.0785 2.8739312,-0.24519 4.1547852,0.41339 1.528319,0.9237 0.96613,3.46672 -0.682129,3.91707 0.964627,1.12139 1.929253,2.24277 2.89388,3.36416 z m -2.392619,-5.52938 c 0.04851,-1.23485 -1.347838,-1.35511 -2.2711153,-1.28673 -0.5857276,-0.13443 -0.8176513,0.0849 -0.6796086,0.6743 0,0.7433 0,1.48661 0,2.22991 0.9933479,-0.0344 2.3646489,0.23519 2.8370359,-0.89919 0.0898,-0.22774 0.112728,-0.47558 0.113688,-0.71829 z"
             id="path3973"
             inkscape:connector-curvature="0" />
        </g>
      </g>
      <g
         transform="translate(38.914444,-238.91223)"
         id="g3841">
        <g
           aria-label="E"
           style="font-style:normal;font-weight:normal;font-size:10.58333302px;line-height:1.25;font-family:sans-serif;letter-spacing:0px;word-spacing:0px;fill:#000000;fill-opacity:1;stroke:none;stroke-width:0.26458332"
           id="text3747">
          <path
             style="stroke-width:0.26458332"
             d="m 34.261262,297 c -1.689819,0 -3.379639,0 -5.069458,0 0,-2.56487 0,-5.12975 0,-7.69462 1.689819,0 3.379639,0 5.069458,0 -0.04854,0.40447 0.22231,1.12833 -0.449531,0.9095 -1.198911,0 -2.397822,0 -3.596733,0 0,0.7028 0,1.4056 0,2.1084 1.348755,0 2.697509,0 4.046264,0 -0.04854,0.40448 0.222311,1.12834 -0.449531,0.90951 -1.198911,0 -2.397822,0 -3.596733,0 0,0.95257 0,1.90513 0,2.8577 1.348755,0 2.697509,0 4.046264,0 0,0.30317 0,0.60634 0,0.90951 z"
             id="path3976"
             inkscape:connector-curvature="0" />
        </g>
        <g
           aria-label="N"
           transform="scale(1.0179912,0.98232676)"
           style="font-style:normal;font-weight:normal;font-size:12.08351517px;line-height:1.25;font-family:sans-serif;letter-spacing:0px;word-spacing:0px;fill:#000000;fill-opacity:1;stroke:none;stroke-width:0.30208787"
           id="text3767">
          <path
             style="stroke-width:0.30208787"
             d="m 26.030419,302.34338 c -0.481846,0 -0.963691,0 -1.445537,0 -1.388503,-2.61967 -2.777006,-5.23933 -4.165509,-7.859 0,2.61967 0,5.23933 0,7.859 -0.351622,-0.11212 -1.202268,0.27479 -1.091528,-0.29969 0,-2.82854 0,-5.65709 0,-8.48564 0.603782,0 1.207565,0 1.811347,0 1.266566,2.39153 2.533133,4.78306 3.799699,7.17459 0,-2.39153 0,-4.78306 0,-7.17459 0.351622,0.11212 1.202268,-0.27479 1.091528,0.29969 0,2.82854 0,5.65709 0,8.48564 z"
             id="path3979"
             inkscape:connector-curvature="0" />
        </g>
      </g>
    </g>
    <g
       id="g3962">
      <path
         style="fill:#000000;stroke-width:0.13523772"
         d="m 64.300987,51.824333 c 0,-1.597642 0,-3.195283 0,-4.792925 0.359468,0.11139 1.214808,-0.273093 1.112885,0.299687 0,1.497746 0,2.995492 0,4.493238 -0.370961,0 -0.741923,0 -1.112885,0 z"
         id="rect3769-0-0"
         inkscape:connector-curvature="0" />
      <path
         style="fill:#000000;stroke-width:0.28825754"
         d="m 58.589989,79.836304 c 0,-7.271975 0,-14.543951 0,-21.815926 0.358724,0.111444 1.213571,-0.273234 1.110818,0.299687 0,7.17208 0,14.344159 0,21.516239 -0.370273,0 -0.740546,0 -1.110818,0 z"
         id="rect3769-0-0-7"
         inkscape:connector-curvature="0" />
      <path
         style="fill:#000000;stroke-width:0.26247171"
         d="m 76.677429,79.836304 c -6.029149,0 -12.058297,0 -18.087446,0 0.111444,-0.358724 -0.273234,-1.213571 0.299687,-1.110818 5.929253,0 11.858506,0 17.787759,0 0,0.370272 0,0.740545 0,1.110818 z"
         id="rect3769-0-0-7-7"
         inkscape:connector-curvature="0" />
      <path
         style="fill:#000000;stroke-width:0.35347864"
         d="m 76.677429,47.031406 c 0,10.934966 0,21.869932 0,32.804898 -0.358724,-0.111445 -1.213571,0.273234 -1.110818,-0.299687 0,-10.83507 0,-21.67014 0,-32.505211 0.370273,0 0.740545,0 1.110818,0 z"
         id="rect3769-0-0-7-7-4"
         inkscape:connector-curvature="0" />
      <path
         style="fill:#000000;stroke-width:0.217116"
         d="m 64.300987,47.031406 c 4.125482,0 8.250963,0 12.376445,0 -0.111444,0.358725 0.273234,1.213572 -0.299687,1.110819 -4.025586,0 -8.051172,0 -12.076758,0 0,-0.370273 0,-0.740546 0,-1.110819 z"
         id="rect3769-0-0-7-7-4-5"
         inkscape:connector-curvature="0" />
    </g>
  </g>
</svg>
